<?xml version="1.0" ?><!-- Uploaded to: SVG Repo, www.svgrepo.com, Generator: SVG Repo Mixer Tools -->
<svg fill="#000000" width="800px" height="800px" viewBox="0 0 100 100" data-name="Layer 1" id="Layer_1" xmlns="http://www.w3.org/2000/svg"><path d="M39.74,71a1.87,1.87,0,1,0,1.87,1.86A1.86,1.86,0,0,0,39.74,71Z"/><circle cx="66.11" cy="72.87" r="1.86"/><path d="M34.31,53.78h3.52V57.3a1.25,1.25,0,0,0,2.5,0V53.78h3.53a1.25,1.25,0,0,0,0-2.5H40.33V47.75a1.25,1.25,0,0,0-2.5,0v3.53H34.31a1.25,1.25,0,0,0,0,2.5Z"/><path d="M48.54,36.68v2.86l-23.4.17A1.24,1.24,0,0,0,23.9,41V68.45a5.67,5.67,0,0,0,5.67,5.67h1.57a8.66,8.66,0,0,0,2.51,4.95h-12a1.25,1.25,0,0,0,0,2.5H39.19l.1,0,.45,0a8.7,8.7,0,0,0,8.6-7.45h9.17a8.69,8.69,0,0,0,17.21,0A7.64,7.64,0,0,0,82,66.49V56.28a7.36,7.36,0,0,0-2.16-5.22l-9.48-9.48a7.43,7.43,0,0,0-5.22-2.16h0l-5.8,0V36.68a5.36,5.36,0,1,0-10.71,0ZM26.4,68.45V42.2L49.86,42h4.42V71.62H48.35a2.56,2.56,0,0,0-.05-.27c0-.12,0-.24-.07-.36a3.45,3.45,0,0,0-.12-.46L48,70.2c-.05-.16-.12-.32-.18-.48s-.07-.19-.11-.29-.16-.35-.25-.52-.07-.14-.1-.2A7.92,7.92,0,0,0,47,68a.76.76,0,0,0-.08-.11c-.13-.18-.26-.36-.4-.53s-.12-.14-.18-.21-.23-.26-.36-.39-.15-.14-.22-.22l-.37-.33L45.1,66l-.38-.28-.28-.19-.4-.25-.3-.16-.43-.2L43,64.81l-.45-.17-.32-.1-.49-.13-.32-.07c-.18,0-.36-.06-.55-.09l-.28,0c-.28,0-.56,0-.85,0s-.57,0-.85,0l-.28,0c-.18,0-.37,0-.55.09l-.32.07-.48.13-.33.1-.44.17-.32.14-.42.2-.31.17a4.11,4.11,0,0,0-.39.24l-.29.19-.37.28a2.65,2.65,0,0,0-.26.21c-.13.1-.24.21-.36.32a2.39,2.39,0,0,0-.23.22c-.12.12-.23.25-.35.38s-.13.14-.19.22-.26.34-.38.52l-.1.12a6,6,0,0,0-.41.69c0,.06-.07.14-.11.21s-.17.34-.25.51l-.11.3c-.06.15-.12.31-.17.47a3.18,3.18,0,0,0-.1.33l-.12.46c0,.12-.05.24-.07.36s0,.18-.05.27H29.57A3.17,3.17,0,0,1,26.4,68.45ZM39.74,79.07a6.2,6.2,0,1,1,6.2-6.2A6.21,6.21,0,0,1,39.74,79.07Zm26.37,0a6.2,6.2,0,1,1,6.2-6.2A6.21,6.21,0,0,1,66.11,79.07Zm8.61-7.46a2.16,2.16,0,0,0,0-.27c0-.12,0-.24-.07-.35a3.59,3.59,0,0,0-.12-.47l-.09-.33a3.8,3.8,0,0,0-.18-.47,2.49,2.49,0,0,0-.11-.29,4,4,0,0,0-.25-.51,2.14,2.14,0,0,0-.1-.22q-.19-.35-.42-.69l0-.06c-.14-.2-.28-.39-.43-.58l-.18-.2c-.12-.13-.23-.27-.36-.39l-.22-.22-.36-.33-.26-.2-.38-.29-.29-.18-.39-.25-.31-.16a4.09,4.09,0,0,0-.42-.2l-.31-.14-.45-.17-.33-.1-.48-.13-.32-.07c-.18,0-.36-.06-.55-.09l-.28,0c-.28,0-.56,0-.85,0s-.57,0-.85,0l-.28,0c-.18,0-.37,0-.55.09l-.31.07-.49.13-.32.1-.45.17-.32.14-.42.2-.3.16-.4.25-.28.19c-.13.09-.26.18-.38.28l-.26.2-.36.33-.23.22-.35.39a1.81,1.81,0,0,0-.18.21c-.15.17-.28.35-.41.53L58.9,68a7.92,7.92,0,0,0-.42.69,1.24,1.24,0,0,0-.1.2c-.09.17-.18.35-.26.52s-.07.2-.11.29-.12.32-.17.48a3.18,3.18,0,0,0-.1.33l-.12.46-.06.36-.06.27h-.72V42H58a1,1,0,0,0,.3-.06l5,0v7.33a7.38,7.38,0,0,0,7.37,7.37h8.81v9.85A5.15,5.15,0,0,1,74.72,71.61ZM78,52.83a4.54,4.54,0,0,1,.91,1.31H70.65a4.88,4.88,0,0,1-4.87-4.87V42a5,5,0,0,1,2.77,1.36Zm-24.14-19a2.86,2.86,0,0,1,2.86,2.86v2.8l-5.71,0V36.68A2.86,2.86,0,0,1,53.89,33.82Z"/><path d="M45.35,33.93a1.31,1.31,0,0,0,.43.08,1.26,1.26,0,1,0-.43-.08Z"/><path d="M42,32.63a1.25,1.25,0,0,0,.43-2.42,1.25,1.25,0,0,0-.86,2.35A1.29,1.29,0,0,0,42,32.63Z"/><path d="M48,30.22a1.25,1.25,0,0,0,1.06.59,1.28,1.28,0,0,0,.66-.18A1.25,1.25,0,1,0,48,30.22Z"/><path d="M46.26,25.1a1.25,1.25,0,0,0-.41,1.72,1.26,1.26,0,0,0,1.07.59,1.34,1.34,0,0,0,.66-.18,1.25,1.25,0,0,0-1.32-2.13Z"/><path d="M45.88,22.1a1.25,1.25,0,0,0-2.13,1.32,1.25,1.25,0,1,0,2.13-1.32Z"/><path d="M53.18,24.39h.08a1.22,1.22,0,1,0-.08,0Z"/><path d="M52.92,28.38H53a1.22,1.22,0,1,0-.08,0Z"/><circle cx="16.68" cy="80.32" r="1.25"/></svg>